<svg width="43" height="52" viewBox="0 0 43 52" fill="none" xmlns="http://www.w3.org/2000/svg">
<path id="Vector" d="M30.9062 31.5302C30.9062 28.4663 35.6094 23.4479 35.6094 23.4479C35.6094 23.4479 40.3125 28.4663 40.3125 31.5302C40.3125 34.0658 38.1894 36.1524 35.6094 36.1524C33.0294 36.1524 30.9062 34.0658 30.9062 31.5302ZM0 46.7175C0 49.6229 2.41875 52 5.375 52H37.625C40.5813 52 43 49.6229 43 46.7175C43 43.8121 40.5813 41.4349 37.625 41.4349H5.375C2.41875 41.4349 0 43.8121 0 46.7175ZM3.7625 22.8404C2.33813 21.4405 2.33813 19.1426 3.7625 17.7427L13.2763 8.39264L8.17 3.37422C7.39062 2.60825 7.39062 1.34044 8.17 0.574476C8.94937 -0.191492 10.2394 -0.191492 11.0188 0.574476L28.4875 17.7427C29.9119 19.1426 29.9119 21.4405 28.4875 22.8404L18.7319 32.4546C18.0063 33.1677 17.0656 33.5111 16.125 33.5111C15.1844 33.5111 14.2438 33.1677 13.5181 32.4546L3.7625 22.8404ZM6.88 20.3048H25.3969L16.125 11.2188L6.88 20.3048Z" fill="white"/>
</svg>
