<svg width="36" height="37" viewBox="0 0 36 37" fill="none" xmlns="http://www.w3.org/2000/svg">
<path id="Vector" d="M32.9272 15.4079L34.8202 13.5314C36.3933 11.9721 36.3933 9.46143 34.8202 7.92857L31.9941 5.12714C30.421 3.56786 27.8882 3.56786 26.3418 5.12714L24.4488 7.00357L32.9272 15.4079ZM21.6227 9.805L3.0661 28.1993C2.79948 28.4636 2.66617 28.7807 2.66617 29.1507V35.6786C2.66617 36.4186 3.25273 37 3.99926 37H10.5847C10.9313 37 11.2779 36.8679 11.5179 36.6036L30.0744 18.2093L21.6227 9.805ZM4.02592 21.6186C1.57304 20.5086 0 18.9229 0 16.5179C0 13.0557 3.70598 11.2586 6.95871 9.67286C9.1983 8.56286 11.9978 7.215 11.9978 5.94643C11.9978 5.04786 10.2114 3.96429 7.99852 3.96429C5.49232 3.96429 4.37252 5.18 4.3192 5.23286C3.59933 6.05214 2.34623 6.15786 1.51972 5.47071C0.693205 4.78357 0.559896 3.56786 1.22644 2.72214C1.4664 2.45786 3.57267 0 7.99852 0C11.9178 0 15.997 2.22 15.997 5.94643C15.997 9.67286 12.1311 11.5493 8.71839 13.2143C6.8254 14.1393 3.99926 15.5136 3.99926 16.5179C3.99926 17.3107 5.27902 17.9979 7.11868 18.5793L4.02592 21.6186ZM29.7012 24.2086C31.9141 25.4771 33.3272 27.2214 33.3272 29.7321C33.3272 34.8593 26.8217 37 23.329 37C22.2359 37 21.3294 36.1014 21.3294 35.0179C21.3294 33.9343 22.2359 33.0357 23.329 33.0357C25.382 33.0357 29.3279 31.7407 29.3279 29.7321C29.3279 28.7014 28.3148 27.8557 26.7417 27.1686L29.7012 24.2086Z" fill="white"/>
</svg>
