<svg width="44" height="18" viewBox="0 0 45 17" fill="none" xmlns="http://www.w3.org/2000/svg">
<path id="Vector" d="M36.9233 5.525C32.7727 2.10375 27.3883 0 21.4429 0C12.1098 0 4.07797 5.1425 0.263967 12.6013C-0.453964 14.025 0.353708 15.725 1.94662 16.235C3.2703 16.66 4.70616 16.065 5.31191 14.875C8.22851 9.2225 14.3533 5.3125 21.4429 5.3125C25.8178 5.3125 29.8113 6.8425 32.9298 9.3075L28.6446 13.3663C27.2312 14.705 28.2184 17 30.2151 17H42.7565C43.9904 17 45 16.0438 45 14.875V2.99625C45 1.105 42.577 0.14875 41.1636 1.4875L36.9233 5.525Z" fill="white"/>
</svg>
