<svg width="36" height="40" viewBox="0 0 36 40" fill="none" xmlns="http://www.w3.org/2000/svg">
<g id="Group">
<g id="Group_2">
<path id="Vector" d="M17.7605 5.08735V1.11344C17.7605 0.11441 16.5617 -0.374005 15.8734 0.336416L9.65726 6.5304C9.21325 6.97441 9.21325 7.66263 9.65726 8.10664L15.8512 14.3006C16.5617 14.9888 17.7605 14.5004 17.7605 13.5014V9.52748C25.1089 9.52748 31.0809 15.4995 31.0809 22.8479C31.0809 28.8864 27.0182 33.9926 21.5124 35.6132C20.58 35.8797 19.9806 36.7677 19.9806 37.7223C19.9806 39.1653 21.357 40.2976 22.7556 39.8758C30.1263 37.7223 35.521 30.9289 35.521 22.8479C35.521 13.0352 27.5732 5.08735 17.7605 5.08735Z" fill="white"/>
<path id="Vector_2" d="M4.44013 22.8479C4.44013 19.873 5.41696 17.1201 7.08201 14.8778C7.74803 13.9898 7.65922 12.7688 6.8822 11.9696C5.94977 11.0371 4.35133 11.1259 3.5521 12.1916C1.33204 15.1664 0 18.8518 0 22.8479C0 30.9289 5.39476 37.7223 12.7654 39.8758C14.164 40.2976 15.5405 39.1653 15.5405 37.7223C15.5405 36.7677 14.941 35.8796 14.0086 35.6132C8.50285 33.9926 4.44013 28.8864 4.44013 22.8479Z" fill="white"/>
</g>
</g>
</svg>
