<svg width="35" height="35" viewBox="0 0 35 35" fill="none" xmlns="http://www.w3.org/2000/svg">
<path id="Vector" d="M30.625 0H4.375C1.96875 0 0 1.96875 0 4.375V30.625C0 33.0312 1.96875 35 4.375 35H30.625C33.0312 35 35 33.0312 35 30.625V4.375C35 1.96875 33.0312 0 30.625 0ZM28.4375 30.625H6.5625C5.35938 30.625 4.375 29.6406 4.375 28.4375V6.5625C4.375 5.35938 5.35938 4.375 6.5625 4.375H28.4375C29.6406 4.375 30.625 5.35938 30.625 6.5625V28.4375C30.625 29.6406 29.6406 30.625 28.4375 30.625Z" fill="white"/>
</svg>
