<svg width="44" height="18" viewBox="0 0 44 18" fill="none" xmlns="http://www.w3.org/2000/svg">
<path id="Vector" d="M23.0221 0.00970459C17.2118 0.00970459 11.9496 2.23721 7.8933 5.85971L3.74932 1.6072C2.36799 0.189705 0 1.1797 0 3.1822V15.7597C0 16.9972 0.986662 18.0097 2.19258 18.0097H14.4491C16.4005 18.0097 17.3872 15.5797 16.0059 14.1622L11.818 9.86471C14.8657 7.2547 18.7466 5.6347 23.044 5.6347C29.9726 5.6347 35.9584 9.7747 38.8087 15.7597C39.4007 17.0197 40.804 17.6497 42.0976 17.1997C43.6543 16.6822 44.4437 14.8597 43.742 13.3297C39.9708 5.4547 32.1213 0.00970459 23.0221 0.00970459Z" fill="white"/>
</svg>
